<mxfile host="Electron" modified="2023-08-16T10:48:02.029Z" agent="Mozilla/5.0 (Windows NT 10.0; Win64; x64) AppleWebKit/537.36 (KHTML, like Gecko) draw.io/21.6.8 Chrome/114.0.5735.289 Electron/25.5.0 Safari/537.36" etag="uawnIubxp4xQ5r4rBgyW" version="21.6.8" type="device">
  <diagram name="Page-1" id="FNjy7vPUue7BM_zLJFXV">
    <mxGraphModel dx="910" dy="1183" grid="1" gridSize="10" guides="1" tooltips="1" connect="1" arrows="1" fold="1" page="1" pageScale="1" pageWidth="1169" pageHeight="827" math="0" shadow="0">
      <root>
        <mxCell id="0" />
        <mxCell id="1" parent="0" />
        <mxCell id="IJgoSyGLdFJKMN9JlqgX-1" value="" style="verticalLabelPosition=bottom;sketch=0;aspect=fixed;html=1;verticalAlign=top;strokeColor=none;align=center;outlineConnect=0;shape=mxgraph.citrix.web_server;" parent="1" vertex="1">
          <mxGeometry x="315" y="80" width="76.5" height="90" as="geometry" />
        </mxCell>
        <mxCell id="IJgoSyGLdFJKMN9JlqgX-2" value="" style="verticalLabelPosition=bottom;sketch=0;aspect=fixed;html=1;verticalAlign=top;strokeColor=none;align=center;outlineConnect=0;shape=mxgraph.citrix.web_server;" parent="1" vertex="1">
          <mxGeometry x="635" y="90" width="76.5" height="90" as="geometry" />
        </mxCell>
        <mxCell id="IJgoSyGLdFJKMN9JlqgX-3" value="" style="verticalLabelPosition=bottom;sketch=0;aspect=fixed;html=1;verticalAlign=top;strokeColor=none;align=center;outlineConnect=0;shape=mxgraph.citrix.web_server;" parent="1" vertex="1">
          <mxGeometry x="270" y="470" width="76.5" height="90" as="geometry" />
        </mxCell>
        <mxCell id="IJgoSyGLdFJKMN9JlqgX-4" value="" style="verticalLabelPosition=bottom;sketch=0;aspect=fixed;html=1;verticalAlign=top;strokeColor=none;align=center;outlineConnect=0;shape=mxgraph.citrix.web_server;" parent="1" vertex="1">
          <mxGeometry x="480" y="470" width="76.5" height="90" as="geometry" />
        </mxCell>
        <mxCell id="IJgoSyGLdFJKMN9JlqgX-6" value="&lt;b&gt;&lt;font style=&quot;font-size: 22px;&quot;&gt;Internet&lt;/font&gt;&lt;/b&gt;" style="verticalLabelPosition=middle;sketch=0;aspect=fixed;html=1;verticalAlign=middle;strokeColor=none;align=center;outlineConnect=0;shape=mxgraph.citrix.cloud;labelPosition=center;" parent="1" vertex="1">
          <mxGeometry x="400" y="282" width="202.26" height="132" as="geometry" />
        </mxCell>
        <mxCell id="IJgoSyGLdFJKMN9JlqgX-7" value="&lt;font style=&quot;font-size: 18px;&quot;&gt;Porssisahko.net&lt;/font&gt;" style="text;html=1;align=center;verticalAlign=middle;resizable=0;points=[];autosize=1;strokeColor=none;fillColor=none;" parent="1" vertex="1">
          <mxGeometry x="250" y="33" width="150" height="40" as="geometry" />
        </mxCell>
        <mxCell id="IJgoSyGLdFJKMN9JlqgX-8" value="&lt;font style=&quot;font-size: 18px;&quot;&gt;Ilmatieteenlaitos&lt;/font&gt;.&lt;font style=&quot;font-size: 20px;&quot;&gt;fi&lt;/font&gt;" style="text;html=1;align=center;verticalAlign=middle;resizable=0;points=[];autosize=1;strokeColor=none;fillColor=none;" parent="1" vertex="1">
          <mxGeometry x="580" y="33" width="170" height="40" as="geometry" />
        </mxCell>
        <mxCell id="IJgoSyGLdFJKMN9JlqgX-9" value="" style="verticalLabelPosition=bottom;sketch=0;aspect=fixed;html=1;verticalAlign=top;strokeColor=none;align=center;outlineConnect=0;shape=mxgraph.citrix.remote_office;" parent="1" vertex="1">
          <mxGeometry x="70" y="327.25" width="92" height="41.5" as="geometry" />
        </mxCell>
        <mxCell id="IJgoSyGLdFJKMN9JlqgX-10" value="&lt;font style=&quot;font-size: 20px;&quot;&gt;Raspberry Pi&lt;/font&gt;" style="text;html=1;align=center;verticalAlign=middle;resizable=0;points=[];autosize=1;strokeColor=none;fillColor=none;" parent="1" vertex="1">
          <mxGeometry x="46" y="253" width="140" height="40" as="geometry" />
        </mxCell>
        <mxCell id="IJgoSyGLdFJKMN9JlqgX-11" value="&lt;font style=&quot;font-size: 20px;&quot;&gt;NGINX reverse proxy&lt;/font&gt;" style="text;html=1;align=center;verticalAlign=middle;resizable=0;points=[];autosize=1;strokeColor=none;fillColor=none;" parent="1" vertex="1">
          <mxGeometry x="200" y="570" width="210" height="40" as="geometry" />
        </mxCell>
        <mxCell id="IJgoSyGLdFJKMN9JlqgX-12" value="&lt;font style=&quot;font-size: 20px;&quot;&gt;node.js web server&lt;/font&gt;" style="text;html=1;align=center;verticalAlign=middle;resizable=0;points=[];autosize=1;strokeColor=none;fillColor=none;" parent="1" vertex="1">
          <mxGeometry x="420" y="570" width="190" height="40" as="geometry" />
        </mxCell>
        <mxCell id="IJgoSyGLdFJKMN9JlqgX-15" value="" style="verticalLabelPosition=bottom;sketch=0;aspect=fixed;html=1;verticalAlign=top;strokeColor=none;align=center;outlineConnect=0;shape=mxgraph.citrix.web_server;" parent="1" vertex="1">
          <mxGeometry x="730" y="470" width="76.5" height="90" as="geometry" />
        </mxCell>
        <mxCell id="IJgoSyGLdFJKMN9JlqgX-17" value="&lt;font style=&quot;font-size: 20px;&quot;&gt;PostgreSQL database server&lt;/font&gt;" style="text;html=1;align=center;verticalAlign=middle;resizable=0;points=[];autosize=1;strokeColor=none;fillColor=none;" parent="1" vertex="1">
          <mxGeometry x="640" y="570" width="280" height="40" as="geometry" />
        </mxCell>
        <mxCell id="IJgoSyGLdFJKMN9JlqgX-18" value="" style="endArrow=none;html=1;curved=1;" parent="1" edge="1">
          <mxGeometry width="50" height="50" relative="1" as="geometry">
            <mxPoint x="510" y="280" as="sourcePoint" />
            <mxPoint x="635" y="130" as="targetPoint" />
            <Array as="points">
              <mxPoint x="500" y="120" />
            </Array>
          </mxGeometry>
        </mxCell>
        <mxCell id="IJgoSyGLdFJKMN9JlqgX-23" value="" style="endArrow=none;html=1;curved=1;" parent="1" edge="1">
          <mxGeometry width="50" height="50" relative="1" as="geometry">
            <mxPoint x="380" y="130" as="sourcePoint" />
            <mxPoint x="510" y="280" as="targetPoint" />
            <Array as="points">
              <mxPoint x="520" y="100" />
            </Array>
          </mxGeometry>
        </mxCell>
        <mxCell id="IJgoSyGLdFJKMN9JlqgX-24" value="" style="endArrow=none;html=1;curved=1;" parent="1" source="IJgoSyGLdFJKMN9JlqgX-9" edge="1">
          <mxGeometry width="50" height="50" relative="1" as="geometry">
            <mxPoint x="350" y="400" as="sourcePoint" />
            <mxPoint x="400" y="350" as="targetPoint" />
            <Array as="points">
              <mxPoint x="310" y="330" />
              <mxPoint x="250" y="360" />
            </Array>
          </mxGeometry>
        </mxCell>
        <mxCell id="IJgoSyGLdFJKMN9JlqgX-25" value="" style="endArrow=none;html=1;rounded=0;" parent="1" source="IJgoSyGLdFJKMN9JlqgX-4" target="IJgoSyGLdFJKMN9JlqgX-15" edge="1">
          <mxGeometry width="50" height="50" relative="1" as="geometry">
            <mxPoint x="670" y="515" as="sourcePoint" />
            <mxPoint x="740" y="490" as="targetPoint" />
          </mxGeometry>
        </mxCell>
        <mxCell id="IJgoSyGLdFJKMN9JlqgX-26" value="" style="endArrow=none;html=1;rounded=0;" parent="1" source="IJgoSyGLdFJKMN9JlqgX-4" edge="1">
          <mxGeometry width="50" height="50" relative="1" as="geometry">
            <mxPoint x="470" y="450" as="sourcePoint" />
            <mxPoint x="520" y="400" as="targetPoint" />
          </mxGeometry>
        </mxCell>
        <mxCell id="IJgoSyGLdFJKMN9JlqgX-27" value="" style="endArrow=none;html=1;rounded=0;" parent="1" source="IJgoSyGLdFJKMN9JlqgX-3" edge="1">
          <mxGeometry width="50" height="50" relative="1" as="geometry">
            <mxPoint x="391.5" y="513.1532367972742" as="sourcePoint" />
            <mxPoint x="558.5" y="513.8267441860465" as="targetPoint" />
            <Array as="points">
              <mxPoint x="500" y="516.85" />
            </Array>
          </mxGeometry>
        </mxCell>
      </root>
    </mxGraphModel>
  </diagram>
</mxfile>
